<mxfile host="app.diagrams.net" modified="2023-07-18T18:41:04.628Z" agent="Mozilla/5.0 (Macintosh; Intel Mac OS X 10_15_7) AppleWebKit/537.36 (KHTML, like Gecko) Chrome/114.0.0.0 Safari/537.36" version="21.6.3" etag="yE1DFj89Oj7dZUI_RLxC" type="github">
  <diagram name="페이지-1" id="c8cfproOMKgunIGwkZj1">
    <mxGraphModel>
      <root>
        <mxCell id="0" />
        <mxCell id="1" parent="0" />
      </root>
    </mxGraphModel>
  </diagram>
</mxfile>
